HIERARCHY
ROOT Hips
{
    OFFSET 13.234065055847168 79.2879638671875 -18.164512634277344
    CHANNELS 6 Xposition Yposition Zposition Zrotation Xrotation Yrotation
    JOINT RightUpLeg
    {
        OFFSET -13.234065055847168 0.0 0.0
        CHANNELS 3 Zrotation Xrotation Yrotation
        JOINT RightLeg
        {
            OFFSET 0.0 -33.876686096191406 0.0
            CHANNELS 3 Zrotation Xrotation Yrotation
            JOINT RightFoot
            {
                OFFSET 0.0 -45.411277770996094 0.0
                CHANNELS 3 Zrotation Xrotation Yrotation
                End Site
                {
                    OFFSET 0.0 0.0 18.164512634277344
                }
            }
        }
    }
    JOINT LeftUpLeg
    {
        OFFSET 13.234065055847168 0.0 0.0
        CHANNELS 3 Zrotation Xrotation Yrotation
        JOINT LeftLeg
        {
            OFFSET 0.0 -33.876686096191406 0.0
            CHANNELS 3 Zrotation Xrotation Yrotation
            JOINT LeftFoot
            {
                OFFSET 0.0 -45.411277770996094 0.0
                CHANNELS 3 Zrotation Xrotation Yrotation
                End Site
                {
                    OFFSET 0.0 0.0 18.164512634277344
                }
            }
        }
    }
    JOINT Spine
    {
        OFFSET 0.0 23.083913803100586 0.0
        CHANNELS 3 Zrotation Xrotation Yrotation
        JOINT Spine3
        {
            OFFSET 0.0 25.31319236755371 0.0
            CHANNELS 3 Zrotation Xrotation Yrotation
            JOINT Neck
            {
                OFFSET 0.0 10.965160369873047 0.0
                CHANNELS 3 Zrotation Xrotation Yrotation
                End Site
                {
                    OFFSET 0.0 4.386064052581787 0.0
                }
            }
            JOINT LeftArm
            {
                OFFSET 14.50974178314209 0.0 0.0
                CHANNELS 3 Zrotation Xrotation Yrotation
                JOINT LeftForeArm
                {
                    OFFSET 27.493026733398438 0.0 0.0
                    CHANNELS 3 Zrotation Xrotation Yrotation
                    JOINT LeftHand
                    {
                        OFFSET 19.45329475402832 0.0 0.0
                        CHANNELS 3 Zrotation Xrotation Yrotation
                        End Site
                        {
                            OFFSET 7.781317710876465 0.0 0.0
                        }
                    }
                }
            }
            JOINT RightArm
            {
                OFFSET -14.50974178314209 0.0 0.0
                CHANNELS 3 Zrotation Xrotation Yrotation
                JOINT RightForeArm
                {
                    OFFSET -27.493026733398438 0.0 0.0
                    CHANNELS 3 Zrotation Xrotation Yrotation
                    JOINT RightHand
                    {
                        OFFSET -19.45329475402832 0.0 0.0
                        CHANNELS 3 Zrotation Xrotation Yrotation
                        End Site
                        {
                            OFFSET -7.781317710876465 0.0 0.0
                        }
                    }
                }
            }
        }
    }
}
MOTION
Frames: 5
Frame Time: 0.03333333333333333
-8.290212281281129e-05 63.72379684448242 -0.00099445681553334 1.3769940375795957 -11.087184427550527 -15.093083668558688 -9.406775486168488 -48.256448496081376 -3.8015827825988393 11.815420063811294 79.91407748365614 -8.300376414923832 -2.586273221513765e-34 -9.93923337957349e-17 -2.981770013872047e-16 -5.425287491537316 -49.964906008804896 -0.8286957624097434 1.0925797916628233 78.21899968913914 -0.3888038391389609 0.0 0.0 1.242404172446686e-15 -3.2535695730163394 26.678401143091822 -0.4834820364917343 -2.774075494234282e-07 -2.2093597448173726e-07 -4.5983237213233465 5.113144132895257 -8.554663764725282 173.84047534543424 110.29457686764782 -9.423673960761533 -154.060190365151 6.259103737185049e-06 -1.4415570447498778e-06 105.41602868339784 0.0 0.0 0.0 -116.29208529227348 -21.215638119989382 156.58275896070958 8.929100493145619e-07 -1.1563312627570543e-06 -100.64016587509312 -6.3611093629270335e-15 0.0 0.0
-8.484203135594726e-05 63.72380065917969 -0.0009968896629288793 1.3418810953583173 -11.050927594329382 -15.108865274397902 -9.34297235393445 -48.20066659343115 -3.7300530725616663 11.969763801628368 79.81628739787426 -8.50604465088898 1.5902773407317582e-15 -3.1805546814635164e-15 -6.957463365701441e-16 -5.24367856292328 -49.98209069227293 -0.6687386449244791 1.2497320253563957 78.1773072663889 -0.6743798643700385 -3.9756933518293955e-16 -4.310455369189608e-33 1.242404172446686e-15 -3.203763242686871 26.717005534652795 -0.5188797146866408 5.832399623614236e-07 1.2443492357307775e-06 -4.641772131606387 4.976924835444905 -8.68045069308354 173.81700306594692 110.34031687702901 -9.280438705668681 -154.0496101313866 5.726499742699052e-07 -1.873088040149059e-06 106.01477605561409 6.3611093629270335e-15 6.3611093629270335e-15 3.1805546814635164e-15 -116.40385776488553 -21.262806896896397 156.525941241622 1.0419398803594483e-06 6.276094521132493e-07 -100.71837118942746 -6.3611093629270335e-15 6.3611093629270335e-15 -6.3611093629270335e-15
-7.304119935724884e-05 63.72380065917969 -0.000991287874057889 1.3662623240061746 -10.983405537504067 -15.049013504176356 -9.46110153750952 -48.245714722182136 -3.8578255626653277 11.81919207812721 79.80157259010215 -8.25086287799159 -7.951386703658792e-16 -2.069018577211012e-33 2.981770013872047e-16 -5.313914903931741 -50.05176786545812 -0.7608592237621895 1.236532591993009 78.1882452665203 -0.5873060589196004 -3.975693351829396e-16 -4.969616689786744e-17 -3.677516350442191e-15 -3.2665397923724453 26.647842550113523 -0.4674711896596887 5.939049490564094e-08 -4.013396489922117e-07 -4.625432546238842 4.898905418051415 -8.823479722948852 173.69742141865314 110.77990521030597 -9.506537558886683 -154.01378727487344 1.0106387842570174e-07 -4.515572020419272e-06 106.21555763140269 0.0 0.0 0.0 -116.2303497288524 -21.149457742373187 156.61290408421053 -2.853112149958294e-06 4.898266577298443e-06 -100.90836605386431 0.0 0.0 0.0
-8.705028449185193e-05 63.72381591796875 -0.0009961113100871444 1.3777878679394404 -11.04547671817016 -15.149644049873672 -9.410712035771619 -48.206778334175056 -3.7909540842262155 11.657814686388331 79.8685006320125 -8.147544518546214 7.951386703658791e-16 -3.2799470152592518e-15 -4.47265502080807e-15 -5.283513601937529 -49.925511209967205 -0.7086274146919644 1.144594649802206 78.04830398075234 -0.5372172485106985 0.0 0.0 -1.4908850069360235e-16 -3.488763530971242 26.593806979711363 -0.3831825534622008 8.45214808930188e-08 -5.247140892506492e-07 -4.695342340137031 4.88162773228995 -8.8517597910798 173.39057537193122 110.77675375899963 -9.274463085648007 -154.0159145500879 4.409197886969879e-06 -1.8620024453939658e-06 106.39950207727621 -6.3611093629270335e-15 0.0 0.0 -115.80951350305475 -20.885226742000505 157.00671122775603 -2.294543697237824e-06 -1.143809504274384e-06 -100.86529691220825 0.0 0.0 0.0
-8.888568845577538e-05 63.72378921508789 -0.0009982500923797488 1.523476001609264 -11.061605257575538 -15.23255581252142 -9.488661756943042 -48.22290368416148 -3.7868052776001004 11.418368729128673 79.95900570364901 -7.919296550351202 1.1207183959892982e-33 9.939233379573489e-17 -1.2921003393445536e-15 -5.364056491955648 -49.84849268371366 -0.7048826729519894 0.49347811305591616 77.94841350923596 0.09814657648579433 0.0 0.0 -5.963540027744093e-16 -3.7328665074784873 26.518249387544806 -0.31093653641094904 2.5045453744690286e-07 -5.417759689634789e-07 -4.621840519795705 4.6523004247670885 -8.81501144085823 173.47617431464937 110.86202746143174 -9.210874458054926 -154.41817050664278 9.74844479242973e-06 -4.777052224547042e-07 106.02492593514172 -3.531125038440127e-31 -6.361109362927035e-15 -6.361109362927035e-15 -115.71376388777192 -20.840554412955797 157.0997170980457 5.127480494623272e-06 -2.7057099091446636e-07 -100.86585407717686 0.0 0.0 0.0
